<?xml version="1.0" encoding="UTF-8" standalone="no"?>
<!DOCTYPE svg PUBLIC "-//W3C//DTD SVG 1.1//EN" "http://www.w3.org/Graphics/SVG/1.1/DTD/svg11.dtd">
<svg width="100%" height="100%" viewBox="0 0 411 443" version="1.1" xmlns="http://www.w3.org/2000/svg" xmlns:xlink="http://www.w3.org/1999/xlink" xml:space="preserve" xmlns:serif="http://www.serif.com/" style="fill-rule:evenodd;clip-rule:evenodd;stroke-linejoin:round;stroke-miterlimit:1.41421;">
    <g transform="matrix(1,0,0,1,224.976,157.406)">
        <path d="M0,-125.558C5.597,-122.326 8.684,-117.94 8.69,-113.206C8.697,-108.5 5.653,-104.138 0.12,-100.922L-95.121,-46.063L-136.429,-69.911L-39.821,-125.559C-28.88,-131.917 -11.016,-131.918 0,-125.558M35.231,-82.227C46.173,-88.583 64.034,-88.588 75.044,-82.232C80.644,-78.997 83.731,-74.612 83.738,-69.879C83.744,-65.174 80.699,-60.812 75.164,-57.595L75.159,-57.592L-20.077,-2.735L-61.376,-26.579L35.231,-82.227ZM-203.684,-69.91L-19.838,36.233L110.275,-38.899C124.561,-47.201 132.422,-58.177 132.405,-69.803C132.389,-81.511 124.403,-92.564 109.921,-100.926C96.213,-108.839 77.983,-113.485 58.591,-114.007L57.369,-114.039L57.266,-115.257C56.33,-126.159 48.38,-136.456 34.877,-144.253C4.503,-161.79 -44.758,-161.791 -74.935,-144.254L-203.684,-69.91Z" style="fill:#C65E59;fill-rule:nonzero;"/>
    </g>
    <g transform="matrix(1,0,0,1,150.039,186.192)">
        <path d="M0,173.09C-0.018,179.463 -2.288,184.273 -6.391,186.634C-8.136,187.638 -10.099,188.137 -12.204,188.137C-15.109,188.137 -18.289,187.187 -21.549,185.305C-32.479,178.993 -41.343,163.521 -41.306,150.814L-41.306,40.052L0,63.9L0,173.09ZM-75.207,129.758C-75.225,136.161 -77.48,140.98 -81.559,143.326C-83.273,144.313 -85.204,144.804 -87.281,144.804C-90.173,144.804 -93.344,143.854 -96.603,141.973C-107.528,135.664 -116.388,120.194 -116.351,107.486L-116.351,-3.27L-74.896,20.568L-75.207,129.758ZM33.807,194.147L33.807,44.62L-40.352,1.682L-150.039,-61.524L-150.039,86.428C-150.138,121.401 -125.606,164.059 -95.353,181.525C-81.85,189.321 -68.954,191.058 -59.046,186.418L-57.939,185.9L-57.3,186.941C-47.15,203.476 -34.011,216.941 -20.3,224.858C-5.786,233.237 7.838,234.614 18.053,228.735C28.165,222.915 33.76,210.631 33.807,194.147" style="fill:#C65E59;fill-rule:nonzero;"/>
    </g>
    <g transform="matrix(1,0,0,1,356.713,259.841)">
        <path d="M0,68.313L-96.377,123.957L-96.377,76.488L-1.367,21.633C4.245,18.393 9.605,17.915 13.731,20.289C17.817,22.639 20.078,27.45 20.096,33.833C20.132,46.426 11.116,61.894 0,68.313M-96.377,-9.754L-1.367,-64.609C4.204,-67.826 9.501,-68.316 13.546,-65.989C17.593,-63.66 19.832,-58.833 19.851,-52.399C19.887,-39.727 10.981,-24.258 0,-17.918L-96.377,37.725L-96.377,-9.754ZM53.721,12.777C53.676,-2.786 48.722,-14.714 39.768,-20.811L38.747,-21.507L39.336,-22.594C48.656,-39.789 53.765,-57.851 53.721,-73.456C53.673,-90.013 48.114,-102.316 38.066,-108.098C27.974,-113.905 14.455,-112.506 0,-104.161L-130.113,-29.028L-130.113,182.218L-1.367,107.876C29.107,90.281 53.819,47.62 53.721,12.777" style="fill:#C65E59;fill-rule:nonzero;"/>
    </g>
</svg>
